# xmcd
#
# Track frame offsets: 
#        150
#        11771
#        24988
#        38496
#        56338
#        70641
#        88106
#        104415
#        115573
#        130683
#        141625
#        153418
#
# Disc length: 2322 seconds
#
# Revision: 0
# Processed by: cddbd v1.5.2PL0 Copyright (c) Steve Scherf et al.
# Submitted via: ExactAudioCopy v0.99pb5
#
DISCID=9309100c
DTITLE=Carolina Chocolate Drops - Genuine Negro Jig
DYEAR=2010
DGENRE=Country
TTITLE0=Peace Behind The Bridge
TTITLE1=Trouble In Your Mind
TTITLE2=Your Baby Ain't Sweet Like Mine
TTITLE3=Hit 'Em Up Style
TTITLE4=Cornbread And Butterbeans
TTITLE5=Snowden's Jig (Genuine Negro Jig)
TTITLE6=Why Don't You Do Right?
TTITLE7=Cindy Gal
TTITLE8=Kissin' And Cussin'
TTITLE9=Sandy Boys
TTITLE10=Reynadine
TTITLE11=Trampled Rose
EXTD=
EXTT0=
EXTT1=
EXTT2=
EXTT3=
EXTT4=
EXTT5=
EXTT6=
EXTT7=
EXTT8=
EXTT9=
EXTT10=
EXTT11=
PLAYORDER=
